<svg xmlns="http://www.w3.org/2000/svg" width="38" height="45" viewBox="0 0 38 45"><defs><clipPath id="ygeja"><path fill="#fff" d="M19.172 9.518c9.17 0 16.605 7.434 16.605 16.605 0 9.17-7.434 16.605-16.605 16.605-9.17 0-16.605-7.434-16.605-16.605 0-9.17 7.435-16.605 16.605-16.605z"/></clipPath><clipPath id="ygejb"><path fill="#fff" d="M11.622 40.3c.54.543.54 1.423 0 1.966L9.67 44.23a1.374 1.374 0 0 1-1.953 0 1.395 1.395 0 0 1 0-1.964L9.67 40.3a1.375 1.375 0 0 1 1.952 0z"/></clipPath><clipPath id="ygejc"><path fill="#fff" d="M26.733 40.298a1.38 1.38 0 0 0 0 1.953l1.953 1.953a1.38 1.38 0 1 0 1.953-1.953l-1.953-1.953a1.381 1.381 0 0 0-1.953 0z"/></clipPath><clipPath id="ygejd"><path fill="#fff" d="M19.163 19.953c.773 0 1.4.593 1.4 1.325v3.447h6.228c.773 0 1.4.63 1.4 1.407s-.627 1.408-1.4 1.408h-7.628c-.774 0-1.4-.593-1.4-1.326v-.04-4.896c0-.732.626-1.325 1.4-1.325z"/></clipPath></defs><g><g><g><path fill="none" stroke="#267df4" stroke-miterlimit="20" stroke-width="5.7" d="M19.172 9.518c9.17 0 16.605 7.434 16.605 16.605 0 9.17-7.434 16.605-16.605 16.605-9.17 0-16.605-7.434-16.605-16.605 0-9.17 7.435-16.605 16.605-16.605z" clip-path="url(&quot;#ygeja&quot;)"/></g><g><path fill="none" stroke="#267df4" stroke-miterlimit="20" stroke-width="2.85" d="M2.882 14.274c-.047-.075-.1-.145-.144-.223C.456 10.13 1.73 5.162 5.582 2.955 9.434.748 14.406 2.138 16.688 6.06c.045.077.08.157.121.236 0 0-4.165.893-7.506 2.807-3.612 2.07-6.42 5.172-6.42 5.172z"/></g><g><path fill="none" stroke="#267df4" stroke-miterlimit="20" stroke-width="2.85" d="M35.473 14.274c.047-.075.1-.145.145-.223 2.281-3.921 1.008-8.889-2.845-11.096C28.921.748 23.95 2.138 21.668 6.06c-.045.077-.08.157-.122.236 0 0 4.166.893 7.507 2.807 3.612 2.07 6.42 5.172 6.42 5.172z"/></g><g><path fill="none" stroke="#267df4" stroke-miterlimit="20" stroke-width="5.7" d="M11.622 40.3c.54.543.54 1.423 0 1.966L9.67 44.23a1.374 1.374 0 0 1-1.953 0 1.395 1.395 0 0 1 0-1.964L9.67 40.3a1.375 1.375 0 0 1 1.952 0z" clip-path="url(&quot;#ygejb&quot;)"/></g><g><path fill="none" stroke="#267df4" stroke-miterlimit="20" stroke-width="5.7" d="M26.733 40.298a1.38 1.38 0 0 0 0 1.953l1.953 1.953a1.38 1.38 0 1 0 1.953-1.953l-1.953-1.953a1.381 1.381 0 0 0-1.953 0z" clip-path="url(&quot;#ygejc&quot;)"/></g><g><path fill="none" stroke="#267df4" stroke-miterlimit="20" stroke-width="5.7" d="M19.163 19.953c.773 0 1.4.593 1.4 1.325v3.447h6.228c.773 0 1.4.63 1.4 1.407s-.627 1.408-1.4 1.408h-7.628c-.774 0-1.4-.593-1.4-1.326v-.04-4.896c0-.732.626-1.325 1.4-1.325z" clip-path="url(&quot;#ygejd&quot;)"/></g></g></g></svg>