<svg xmlns="http://www.w3.org/2000/svg" width="16" height="20" viewBox="0 0 16 20"><g><g><path fill="#fff" d="M15.985 14.174c-.015.068-.386 1.368-1.308 2.688-.77 1.163-1.577 2.3-2.86 2.32-1.245.029-1.664-.74-3.092-.74-1.441 0-1.887.72-3.082.769-1.22.045-2.153-1.241-2.952-2.394-1.595-2.352-2.838-6.63-1.172-9.54.807-1.427 2.279-2.346 3.852-2.37 1.222-.026 2.356.833 3.107.833.737 0 2.14-1.027 3.585-.873.605.017 2.326.24 3.437 1.875-.09.054-2.05 1.217-2.03 3.609.025 2.866 2.484 3.813 2.515 3.823zM8.33 4.649c-.136-1.077.393-2.223.985-2.922.67-.793 1.833-1.4 2.763-1.441.122 1.119-.318 2.222-.96 3.032-.67.799-1.743 1.41-2.788 1.331z"/></g></g></svg>