<svg xmlns="http://www.w3.org/2000/svg" width="24" height="27" viewBox="0 0 24 27"><g><g><path fill="#fff" d="M17.375 6.063c3.101 0 5.084 2.98 5.084 2.98s-3.025 1.63-3.025 5.17c0 4.2 3.8 5.422 3.8 5.422s-2.999 7.066-6.367 7.066c-1.894 0-2.021-1.082-4.538-1.082-2.186 0-2.924 1.082-4.589 1.082-3.177 0-7.283-6.887-7.283-12.489 0-5.818 4.156-8.149 6.762-8.149 2.288 0 3.241 1.338 5.084 1.338 1.551 0 2.771-1.338 5.072-1.338zM16.841.131c.458 2.852-2.148 6.378-5.262 6.264C11.12 2.766 14.477.322 16.84.13z"/></g></g></svg>