<svg xmlns="http://www.w3.org/2000/svg" width="23" height="15" viewBox="0 0 23 15"><g><g opacity=".3"><path fill="#26272d" d="M7.396 14.193c-3.992 0-7.228-3.188-7.228-7.12 0-3.931 3.236-7.12 7.228-7.12a7.26 7.26 0 0 1 4.877 1.866l-2.13 2.055a4.275 4.275 0 0 0-2.747-.992c-2.35 0-4.255 1.877-4.255 4.191 0 2.315 1.905 4.19 4.255 4.19a4.254 4.254 0 0 0 3.979-2.703h-4.07V5.586h7.162c.103.48.158.977.158 1.487 0 3.932-3.236 7.12-7.229 7.12zm15.556-6.579h-2.516v2.479h-1.83V7.614h-2.517V5.812h2.517V3.333h1.83v2.479h2.516z"/></g></g></svg>