<svg xmlns="http://www.w3.org/2000/svg" width="16" height="15" viewBox="0 0 16 15"><g><g opacity=".3"><path fill="#26272d" d="M4.142 14.201H.888V4.595h3.254zM2.515 3.283h-.022c-1.092 0-1.798-.737-1.798-1.659 0-.942.728-1.66 1.842-1.66s1.8.718 1.82 1.66c0 .922-.706 1.66-1.842 1.66zm3.43 10.918s.043-8.705 0-9.606h3.256v1.36c.432-.654 1.206-1.585 2.934-1.585 2.141 0 3.749 1.372 3.749 4.323v5.508h-3.256V9.063c0-1.292-.472-2.173-1.65-2.173-.899 0-1.435.593-1.67 1.168-.087.204-.107.492-.107.778v5.365z"/></g></g></svg>