<svg xmlns="http://www.w3.org/2000/svg" width="40" height="49" viewBox="0 0 40 49"><defs><clipPath id="bzp2a"><path fill="#fff" d="M3.894 19.147H36.17c2.098 0 3.798 1.7 3.798 3.798v21.831c0 2.098-1.7 3.798-3.798 3.798H3.894a3.798 3.798 0 0 1-3.797-3.798v-21.83c0-2.098 1.7-3.799 3.797-3.799z"/></clipPath><clipPath id="bzp2b"><path fill="#fff" d="M19.078.171h1.899c7.865 0 14.24 6.376 14.24 14.24v7.596H4.838v-7.595c0-7.865 6.376-14.24 14.241-14.24z"/></clipPath><clipPath id="bzp2c"><path fill="#fff" d="M20.028 4.918c5.767 0 10.443 4.676 10.443 10.443v6.646H9.584V15.36c0-5.767 4.676-10.443 10.444-10.443z"/></clipPath><clipPath id="bzp2d"><path fill="#fff" d="M12.979 31.836a1.424 1.424 0 0 1 2.014 0l3.692 3.692 6.377-6.378a1.424 1.424 0 0 1 2.014 2.014l-7.384 7.384a1.424 1.424 0 0 1-2.014 0l-4.7-4.698a1.424 1.424 0 0 1 0-2.014z"/></clipPath></defs><g><g><g><path fill="none" stroke="#267df4" stroke-miterlimit="20" stroke-width="5.7" d="M3.894 19.147H36.17c2.098 0 3.798 1.7 3.798 3.798v21.831c0 2.098-1.7 3.798-3.798 3.798H3.894a3.798 3.798 0 0 1-3.797-3.798v-21.83c0-2.098 1.7-3.799 3.797-3.799z" clip-path="url(&quot;#bzp2a&quot;)"/></g><g><path fill="none" stroke="#267df4" stroke-miterlimit="20" stroke-width="5.7" d="M19.078.171h1.899c7.865 0 14.24 6.376 14.24 14.24v7.596H4.838v0-7.595c0-7.865 6.376-14.24 14.241-14.24z" clip-path="url(&quot;#bzp2b&quot;)"/></g><g><path fill="none" stroke="#267df4" stroke-miterlimit="20" stroke-width="5.7" d="M20.028 4.918c5.767 0 10.443 4.676 10.443 10.443v6.646H9.584v0-6.646c0-5.767 4.676-10.443 10.444-10.443z" clip-path="url(&quot;#bzp2c&quot;)"/></g><g><path fill="none" stroke="#267df4" stroke-miterlimit="20" stroke-width="5.7" d="M12.979 31.836a1.424 1.424 0 0 1 2.014 0l3.692 3.692 6.377-6.378a1.424 1.424 0 0 1 2.014 2.014l-7.384 7.384s0 0 0 0a1.424 1.424 0 0 1-2.014 0s0 0 0 0l-4.7-4.698a1.424 1.424 0 0 1 0-2.014z" clip-path="url(&quot;#bzp2d&quot;)"/></g></g></g></svg>