<svg xmlns="http://www.w3.org/2000/svg" width="133" height="12" viewBox="0 0 133 12"><g><g><path fill="#26272d" d="M7.501 11.084L3.171 4.05h-.045l.061 7.033H.665V.329h2.963L7.94 7.347h.046L7.927.329h2.52v10.755zm5.164 0V.329h7.23v2.188h-4.723v2.035h4.466v2.081h-4.466v2.233h4.997v2.218zm20.613 0h-2.567l-2.126-7.276h-.046l-2.127 7.276H23.83L20.777.329h2.795l1.701 7.155h.046L27.233.329h2.703l1.93 7.155h.045L33.643.329h2.704zM37.653.329h3.28c.578 0 1.104.06 1.58.176.476.116.882.295 1.216.538.334.244.592.553.774.927.183.375.274.825.274 1.352 0 .537-.099.998-.296 1.382-.198.385-.471.699-.82.942-.35.243-.765.423-1.246.54-.481.116-1 .174-1.557.174h-1.701v4.724h-1.504zm1.504 4.755h1.594c.365 0 .702-.033 1.01-.1.31-.064.575-.166.798-.303.223-.137.395-.316.517-.539.121-.222.182-.496.182-.82 0-.324-.063-.595-.19-.813a1.524 1.524 0 0 0-.516-.531 2.206 2.206 0 0 0-.783-.289 5.475 5.475 0 0 0-.987-.083h-1.625zm9.037 6h-1.503V.329h3.448c.516 0 1.007.054 1.473.16.466.107.874.276 1.223.509.35.233.625.54.828.919.202.38.304.843.304 1.39 0 .79-.243 1.427-.73 1.914-.486.486-1.114.794-1.883.926l3.008 4.937h-1.823l-2.734-4.785h-1.61zm0-6.045h1.732c.354 0 .684-.031.987-.092.304-.061.57-.159.798-.296.228-.137.407-.314.54-.531.13-.218.197-.49.197-.813 0-.324-.066-.595-.198-.813a1.526 1.526 0 0 0-.524-.524 2.293 2.293 0 0 0-.767-.28 4.963 4.963 0 0 0-.927-.084h-1.838zm18.669.652c0 .831-.144 1.593-.433 2.287a5.421 5.421 0 0 1-1.192 1.792 5.35 5.35 0 0 1-1.808 1.17 6.091 6.091 0 0 1-2.279.417c-.82 0-1.577-.139-2.27-.418a5.363 5.363 0 0 1-1.8-1.17 5.32 5.32 0 0 1-1.185-1.791 5.986 5.986 0 0 1-.426-2.287c0-.84.142-1.607.426-2.3a5.16 5.16 0 0 1 1.185-1.778 5.389 5.389 0 0 1 1.8-1.147 6.134 6.134 0 0 1 2.27-.41c.82 0 1.58.137 2.279.41a5.375 5.375 0 0 1 1.808 1.147A5.256 5.256 0 0 1 66.43 3.39c.289.694.433 1.461.433 2.301zm-1.625 0a4.77 4.77 0 0 0-.29-1.663 4.23 4.23 0 0 0-.82-1.375 3.837 3.837 0 0 0-1.283-.933c-.501-.228-1.066-.342-1.694-.342a4.01 4.01 0 0 0-1.678.342 3.755 3.755 0 0 0-1.276.933c-.35.396-.62.854-.813 1.375a4.766 4.766 0 0 0-.288 1.663c0 .598.096 1.16.288 1.687.193.526.466.985.82 1.374.355.39.78.696 1.277.92a4.037 4.037 0 0 0 1.67.333c.618 0 1.18-.11 1.687-.334.506-.223.936-.529 1.29-.919a4.12 4.12 0 0 0 .82-1.374 4.88 4.88 0 0 0 .29-1.687zM72.3 9.14h.045L75.582.33h1.625l-4.222 10.755h-1.398L67.395.329h1.67zm7.686 1.945h-1.504V.329h1.504zM82.6.329h3.69c.69 0 1.378.102 2.067.304a5.55 5.55 0 0 1 1.868.957 4.906 4.906 0 0 1 1.352 1.67c.344.68.516 1.495.516 2.447 0 .921-.172 1.719-.516 2.392a4.997 4.997 0 0 1-1.352 1.67c-.557.441-1.18.77-1.868.988a6.816 6.816 0 0 1-2.066.327H82.6zm1.504 9.433h1.883c.648 0 1.248-.09 1.8-.273a4.155 4.155 0 0 0 1.428-.79c.4-.344.711-.77.934-1.276.223-.506.334-1.078.334-1.716 0-.668-.111-1.256-.334-1.762a3.461 3.461 0 0 0-.934-1.268c-.4-.34-.876-.598-1.428-.775a5.857 5.857 0 0 0-1.8-.266h-1.884zm11.559-.015h5.62v1.337H94.16V.329h6.896v1.322h-5.392v3.22h5.073v1.292h-5.073zm15.205-.82h.03V.329h1.504v10.755h-1.898l-5.682-8.78h-.03v8.78h-1.504V.329h1.96zm13.367.486a4.832 4.832 0 0 1-1.656 1.405c-.678.36-1.493.54-2.445.54-.82 0-1.578-.14-2.271-.419a5.282 5.282 0 0 1-1.793-1.17 5.382 5.382 0 0 1-1.177-1.791c-.283-.694-.425-1.456-.425-2.287 0-.84.144-1.607.433-2.3a5.2 5.2 0 0 1 1.2-1.778 5.456 5.456 0 0 1 1.815-1.147 6.195 6.195 0 0 1 2.279-.41c.364 0 .734.036 1.108.106.375.071.735.177 1.079.32.344.141.658.316.942.524.283.207.526.447.729.72l-1.185.913c-.263-.366-.636-.667-1.116-.904-.482-.238-1-.357-1.557-.357-.628 0-1.193.114-1.694.342-.501.228-.93.539-1.284.933a4.22 4.22 0 0 0-.82 1.375 4.766 4.766 0 0 0-.289 1.663c0 .608.094 1.175.281 1.702.188.526.456.985.806 1.374.349.39.774.697 1.275.92.502.222 1.061.334 1.679.334.608 0 1.16-.122 1.656-.365a3.184 3.184 0 0 0 1.23-1.063zm3.038.334h5.62v1.337h-7.124V.329h6.896v1.322h-5.392v3.22h5.073v1.292h-5.073z"/></g></g></svg>