<svg xmlns="http://www.w3.org/2000/svg" width="14" height="16" viewBox="0 0 14 16"><g><g opacity=".3"><path fill="#26272d" d="M6.161 10.63c-.448 2.223-.996 4.356-2.62 5.47-.5-3.362.737-5.886 1.31-8.566-.978-1.558.118-4.695 2.184-3.922 2.54.95-2.201 5.793.982 6.399 3.323.631 4.68-5.452 2.62-7.431-2.978-2.856-8.668-.065-7.968 4.025.17 1 1.262 1.303.436 2.683C1.2 8.889.631 7.468.705 5.573.821 2.472 3.65.3 6.488 0c3.588-.38 6.957 1.246 7.422 4.438.523 3.603-1.62 7.505-5.458 7.224-1.04-.077-1.477-.564-2.292-1.033z"/></g></g></svg>