<svg xmlns="http://www.w3.org/2000/svg" width="143" height="21" viewBox="0 0 143 21"><g><g><path fill="#f2bc3b" d="M13.465 6.29a1.451 1.451 0 0 0 1.381 1.004h5.685c.988 0 1.4 1.265.6 1.846l-4.6 3.34a1.452 1.452 0 0 0-.527 1.624l1.757 5.406c.305.94-.77 1.724-1.57 1.141l-4.6-3.34a1.45 1.45 0 0 0-1.706 0l-4.599 3.34c-.8.583-1.876-.2-1.57-1.14l1.756-5.407a1.453 1.453 0 0 0-.527-1.623L.345 9.14c-.8-.581-.388-1.846.6-1.846H6.63c.63 0 1.186-.405 1.38-1.003L9.768.885c.306-.941 1.636-.941 1.942 0z"/></g><g><path fill="#f2bc3b" d="M43.845 6.29a1.452 1.452 0 0 0 1.381 1.004h5.684c.99 0 1.4 1.265.6 1.846l-4.598 3.34a1.452 1.452 0 0 0-.528 1.624l1.757 5.406c.305.94-.77 1.724-1.57 1.141l-4.6-3.34a1.45 1.45 0 0 0-1.706 0l-4.599 3.34c-.8.583-1.876-.2-1.57-1.14l1.756-5.407a1.452 1.452 0 0 0-.527-1.623l-4.6-3.341c-.8-.581-.388-1.846.6-1.846h5.685c.63 0 1.186-.405 1.38-1.003L40.148.885c.306-.941 1.636-.941 1.942 0z"/></g><g><path fill="#f2bc3b" d="M74.225 6.29a1.452 1.452 0 0 0 1.381 1.004h5.684c.99 0 1.4 1.265.6 1.846l-4.598 3.34a1.453 1.453 0 0 0-.528 1.624l1.757 5.406c.305.94-.77 1.724-1.57 1.141l-4.6-3.34a1.45 1.45 0 0 0-1.706 0l-4.599 3.34c-.8.583-1.876-.2-1.57-1.14l1.756-5.407a1.452 1.452 0 0 0-.528-1.623L61.106 9.14c-.8-.581-.39-1.846.6-1.846h5.684c.629 0 1.186-.405 1.38-1.003L70.528.885c.306-.941 1.636-.941 1.942 0z"/></g><g><path fill="#f2bc3b" d="M104.605 6.29a1.451 1.451 0 0 0 1.381 1.004h5.684c.99 0 1.4 1.265.6 1.846l-4.598 3.34a1.452 1.452 0 0 0-.528 1.624l1.757 5.406c.305.94-.77 1.724-1.57 1.141l-4.6-3.34a1.45 1.45 0 0 0-1.706 0l-4.599 3.34c-.8.583-1.876-.2-1.57-1.14l1.756-5.407a1.453 1.453 0 0 0-.528-1.623L91.486 9.14c-.8-.581-.39-1.846.6-1.846h5.684c.629 0 1.186-.405 1.38-1.003l1.757-5.406c.306-.941 1.636-.941 1.942 0z"/></g><g><path fill="#f2bc3b" d="M134.985 6.29a1.452 1.452 0 0 0 1.381 1.004h5.684c.99 0 1.4 1.265.6 1.846l-4.598 3.34a1.452 1.452 0 0 0-.528 1.624l1.757 5.406c.305.94-.77 1.724-1.57 1.141l-4.6-3.34a1.45 1.45 0 0 0-1.706 0l-4.599 3.34c-.8.583-1.876-.2-1.57-1.14l1.756-5.407a1.453 1.453 0 0 0-.528-1.623l-4.598-3.341c-.8-.581-.39-1.846.6-1.846h5.684c.629 0 1.186-.405 1.38-1.003l1.757-5.406c.306-.941 1.636-.941 1.942 0z"/></g></g></svg>