<svg xmlns="http://www.w3.org/2000/svg" width="17" height="14" viewBox="0 0 17 14"><g><g opacity=".3"><path fill="#26272d" d="M16.255 1.477a6.58 6.58 0 0 1-1.902.528A3.358 3.358 0 0 0 15.81.15a6.577 6.577 0 0 1-2.103.814 3.283 3.283 0 0 0-2.416-1.06c-1.83 0-3.311 1.501-3.311 3.354 0 .264.03.52.085.766-2.75-.14-5.19-1.476-6.823-3.506a3.375 3.375 0 0 0-.448 1.687c0 1.164.585 2.191 1.473 2.792a3.277 3.277 0 0 1-1.5-.42v.043c0 1.625 1.141 2.98 2.656 3.29a3.29 3.29 0 0 1-1.495.057c.421 1.333 1.644 2.302 3.093 2.33a6.588 6.588 0 0 1-4.112 1.435c-.267 0-.531-.015-.79-.046a9.286 9.286 0 0 0 5.075 1.507c6.09 0 9.42-5.112 9.42-9.545 0-.146-.004-.29-.01-.434a6.787 6.787 0 0 0 1.652-1.736z"/></g></g></svg>